#!OML:ASF H:\Terrain\Patient Classification 1\Animal2\Wednesday\Animal2.ASF
:FULLY-SPECIFIED
:DEGREES
1482
root 4.4914 16.5094 -5.88854 31.467 -27.7866 -0.656816
lowerback 26.0539 -1.928 2.00921
upperback 8.15787 -2.24493 -1.55973
thorax -5.52057 -1.12851 -2.17937
lowerneck 4.50839 6.52888 14.9433
upperneck -11.6038 8.38095 -17.7249
head -2.64789 4.49266 -8.2087
rclavicle -6.67916e-014 -2.38542e-015
rhumerus -53.8451 8.60915 -42.7599
rradius 27.108
rwrist 3.18445
rhand -9.12832 34.0112
rfingers 7.12502
rthumb 16.8229 4.71991
lclavicle -6.67916e-014 -2.38542e-015
lhumerus -61.8185 -30.2197 46.9968
lradius 24.5306
lwrist 35.9195
lhand -13.4573 22.2153
lfingers 7.12502
lthumb 12.6523 51.8121
rfemur -57.4011 -2.18473 0.430024
rtibia 46.2887
rfoot -21.5851 -5.96156
rtoes -20.3453
lfemur -56.0755 4.1354 1.25034
ltibia 44.4181
lfoot -17.4686 3.62578
ltoes -44.1041
1483
root 4.50924 16.4986 -5.90262 32.069 -27.7942 -0.780927
lowerback 26.1266 -1.85819 2.16518
upperback 8.26166 -2.12076 -1.56897
thorax -5.43897 -1.0677 -2.3167
lowerneck 4.85094 6.35982 14.9921
upperneck -11.8463 8.16668 -17.8154
head -2.80549 4.4026 -8.27817
rclavicle 7.15625e-015 7.95139e-016
rhumerus -54.5825 7.92044 -41.9069
rradius 26.1927
rwrist 4.26734
rhand -9.39992 34.5847
rfingers 7.12502
rthumb 16.5614 5.27138
lclavicle 7.15625e-015 7.95139e-016
lhumerus -61.9778 -29.5346 46.5474
lradius 23.7834
lwrist 34.6643
lhand -13.546 22.1767
lfingers 7.12502
lthumb 12.5669 51.7788
rfemur -58.125 -2.24182 0.420045
rtibia 46.3929
rfoot -21.4631 -5.95014
rtoes -20.284
lfemur -56.8605 4.31377 1.39102
ltibia 44.7034
lfoot -17.3525 3.50501
ltoes -43.6834
1484
root 4.52749 16.4892 -5.91906 32.4477 -27.8518 -0.773564
lowerback 26.4061 -1.96934 2.03265
upperback 8.41434 -2.29636 -1.6314
thorax -5.41431 -1.1507 -2.25248
lowerneck 5.41829 6.45406 14.789
upperneck -12.3686 8.30657 -17.7955
head -3.04082 4.50557 -8.28639
rclavicle 9.54166e-015 1.35174e-014
rhumerus -54.8633 7.99964 -41.5369
rradius 25.4233
rwrist 5.39141
rhand -10.6358 35.5368
rfingers 7.12502
rthumb 15.3713 6.12815
lclavicle 9.54166e-015 1.35174e-014
lhumerus -62.9508 -28.7702 46.4931
lradius 23.2916
lwrist 34.0249
lhand -13.725 22.3009
lfingers 7.12502
lthumb 12.3943 51.9135
rfemur -58.6865 -2.2955 0.292467
rtibia 46.5157
rfoot -21.3071 -6.10705
rtoes -20.6118
lfemur -57.4515 4.35811 1.42078
ltibia 44.9513
lfoot -17.328 3.56018
ltoes -43.2428
1485
root 4.54701 16.4745 -5.93494 32.7494 -27.8582 -0.508659
lowerback 26.6672 -1.95007 1.86933
upperback 8.58755 -2.31836 -1.72851
thorax -5.34867 -1.15932 -2.25587
lowerneck 5.61371 6.44084 14.8939
upperneck -12.7155 8.29414 -17.8223
head -3.17102 4.50605 -8.33901
rclavicle 2.46493e-014 1.31198e-014
rhumerus -55.5729 7.76838 -41.0496
rradius 24.6275
rwrist 6.47597
rhand -10.4566 35.3646
rfingers 7.12502
rthumb 15.5439 5.96935
lclavicle 2.46493e-014 1.31198e-014
lhumerus -63.7842 -28.8879 46.798
lradius 23.0625
lwrist 33.986
lhand -13.9387 22.4361
lfingers 7.12502
lthumb 12.1882 52.061
rfemur -59.2811 -2.52507 -0.0410027
rtibia 46.6928
rfoot -21.2077 -6.32995
rtoes -21.2709
lfemur -58.1602 4.26181 1.23386
ltibia 45.1758
lfoot -17.2552 3.57035
ltoes -43.0917
1486
root 4.56664 16.4515 -5.95516 33.1464 -27.9077 -0.167426
lowerback 26.7653 -1.81728 1.6519
upperback 8.69979 -2.20683 -1.75452
thorax -5.25974 -1.10515 -2.19349
lowerneck 5.39186 6.4186 15.0309
upperneck -12.5985 8.25493 -17.8956
head -3.09499 4.47694 -8.37017
rclavicle 6.59965e-014 3.53837e-014
rhumerus -56.4756 7.42255 -40.2098
rradius 23.8841
rwrist 7.35753
rhand -9.81721 34.5825
rfingers 7.12502
rthumb 16.1597 5.23611
lclavicle 6.59965e-014 3.53837e-014
lhumerus -64.4262 -29.3043 47.2082
lradius 22.8118
lwrist 34.095
lhand -14.0097 22.7538
lfingers 7.12502
lthumb 12.1198 52.3828
rfemur -60.0939 -2.84304 -0.444081
rtibia 46.9286
rfoot -21.052 -6.36862
rtoes -21.6949
lfemur -59.0389 4.25299 0.945248
ltibia 45.4053
lfoot -17.155 3.60421
ltoes -43.3441
1487
root 4.58585 16.4279 -5.97541 33.6256 -27.9471 -0.068299
lowerback 26.8034 -1.65748 1.65768
upperback 8.82035 -2.01181 -1.82446
thorax -5.13643 -1.00977 -2.33418
lowerneck 5.21371 6.32854 15.2856
upperneck -12.4772 8.14986 -17.8585
head -3.03823 4.40452 -8.38839
rclavicle 5.08889e-014 4.03533e-014
rhumerus -57.5122 7.2049 -39.6615
rradius 23.2512
rwrist 7.76181
rhand -9.70189 33.867
rfingers 7.12502
rthumb 16.2707 4.52964
lclavicle 5.08889e-014 4.03533e-014
lhumerus -64.7205 -29.6396 47.1199
lradius 22.3904
lwrist 33.7825
lhand -13.8485 23.1307
lfingers 7.12502
lthumb 12.2752 52.7504
rfemur -60.9018 -2.99835 -0.662966
rtibia 47.1815
rfoot -20.8677 -6.40589
rtoes -22.1024
lfemur -59.8695 4.3121 0.921764
ltibia 45.6813
lfoot -17.2955 3.50285
ltoes -42.3306
